<?xml version="1.0" encoding="UTF-8" standalone="no"?>
<!-- Created with Inkscape (http://www.inkscape.org/) -->

<svg
   xmlns:dc="http://purl.org/dc/elements/1.1/"
   xmlns:cc="http://creativecommons.org/ns#"
   xmlns:rdf="http://www.w3.org/1999/02/22-rdf-syntax-ns#"
   xmlns:svg="http://www.w3.org/2000/svg"
   xmlns="http://www.w3.org/2000/svg"
   xmlns:sodipodi="http://sodipodi.sourceforge.net/DTD/sodipodi-0.dtd"
   xmlns:inkscape="http://www.inkscape.org/namespaces/inkscape"
   width="60cm"
   height="30cm"
   viewBox="0 0 2125.9842 1062.9921"
   id="svg4338"
   version="1.1"
   inkscape:version="0.48.4 r9939"
   sodipodi:docname="Taluva_batiment.svg">
  <sodipodi:namedview
     id="base"
     pagecolor="#ffffff"
     bordercolor="#666666"
     borderopacity="1.0"
     inkscape:pageopacity="0.0"
     inkscape:pageshadow="2"
     inkscape:zoom="0.35"
     inkscape:cx="1142.9333"
     inkscape:cy="710.12728"
     inkscape:document-units="px"
     inkscape:current-layer="svg4338"
     showgrid="false"
     units="cm"
     inkscape:window-width="1680"
     inkscape:window-height="1026"
     inkscape:window-x="0"
     inkscape:window-y="24"
     inkscape:window-maximized="1" />
  <defs
     id="defs4340">
    <clipPath
       id="clipPath4171"
       clipPathUnits="userSpaceOnUse">
      <path
         inkscape:connector-curvature="0"
         id="path4173"
         d="M 0,800 800,800 800,0 0,0 0,800 Z" />
    </clipPath>
    <clipPath
       id="clipPath4307"
       clipPathUnits="userSpaceOnUse">
      <path
         inkscape:connector-curvature="0"
         id="path4309"
         d="M 0,800 800,800 800,0 0,0 0,800 Z" />
    </clipPath>
    <linearGradient
       id="linearGradient4315"
       spreadMethod="pad"
       gradientTransform="matrix(0,800,800,0,400,0)"
       gradientUnits="userSpaceOnUse"
       y2="0"
       x2="1"
       y1="0"
       x1="0">
      <stop
         id="stop4317"
         offset="0"
         style="stop-opacity:1;stop-color:#1e120d" />
      <stop
         id="stop4319"
         offset="1"
         style="stop-opacity:1;stop-color:#ffffff" />
    </linearGradient>
    <clipPath
       id="clipPath4343"
       clipPathUnits="userSpaceOnUse">
      <path
         inkscape:connector-curvature="0"
         id="path4345"
         d="M 0,800 800,800 800,0 0,0 0,800 Z" />
    </clipPath>
    <clipPath
       clipPathUnits="userSpaceOnUse"
       id="clipPath4847">
      <path
         d="m 103.269,685.534 584.924,0 0,-568.422 -584.924,0 0,568.422 z"
         id="path4849"
         inkscape:connector-curvature="0" />
    </clipPath>
    <clipPath
       id="clipPath4671"
       clipPathUnits="userSpaceOnUse">
      <path
         inkscape:connector-curvature="0"
         id="path4673"
         d="M 0,800 800,800 800,0 0,0 0,800 Z" />
    </clipPath>
    <clipPath
       id="clipPath4807"
       clipPathUnits="userSpaceOnUse">
      <path
         inkscape:connector-curvature="0"
         id="path4809"
         d="M 0,800 800,800 800,0 0,0 0,800 Z" />
    </clipPath>
    <clipPath
       id="clipPath4843"
       clipPathUnits="userSpaceOnUse">
      <path
         inkscape:connector-curvature="0"
         id="path4845"
         d="M 0,800 800,800 800,0 0,0 0,800 Z" />
    </clipPath>
    <clipPath
       clipPathUnits="userSpaceOnUse"
       id="clipPath4847-5">
      <path
         d="m 103.269,685.534 584.924,0 0,-568.422 -584.924,0 0,568.422 z"
         id="path4849-6"
         inkscape:connector-curvature="0" />
    </clipPath>
  </defs>
  <metadata
     id="metadata4343">
    <rdf:RDF>
      <cc:Work
         rdf:about="">
        <dc:format>image/svg+xml</dc:format>
        <dc:type
           rdf:resource="http://purl.org/dc/dcmitype/StillImage" />
        <dc:title></dc:title>
      </cc:Work>
    </rdf:RDF>
  </metadata>
  <g
     inkscape:label="Calque 1"
     inkscape:groupmode="layer"
     id="layer1"
     transform="translate(0,10.629874)" />
  <path
     id="bat2_bottom"
     style="fill:none;stroke:#0000ff"
     d="m 835.93892,269.7913 0,-38.64736 -10.63,0 0,-38.11586 10.63,0 0,-38.82452 -10.63,0 0,-38.11586 10.63,0 0,-38.82453 -10.63,0 0,-38.11587 10.63,0 0,-38.6473 -40.0394,0 0,10.6299 -39.5079,0 0,-10.6299 -40.2165,0 0,10.6299 -39.5079,0 0,-10.6299 -40.0393,0 0,38.6473 10.6299,0 0,38.11587 -10.6299,0 0,38.82453 10.6299,0 0,38.11586 -10.6299,0 0,38.82452 10.6299,0 0,38.11586 -10.6299,0 0,38.64736 40.0393,0 0,-10.62993 39.5079,0 0,10.62993 40.2165,0 0,-10.62993 39.5079,0 0,10.62993 40.0394,0 z"
     inkscape:connector-curvature="0" />
  <path
     id="bat2_font"
     style="fill:none;stroke:#0000ff"
     d="m 1590.3595,469.44261 269.2913,0 0,-55.6889 -10.6299,0 0,-55.1575 10.6299,0 0,-55.68901 -38.293,0 0,-10.62989 -38.8245,0 0,10.62989 -38.1159,0 0,-10.62989 -38.8245,0 0,10.62989 -38.1159,0 0,-10.62989 -38.8245,0 0,10.62989 -38.293,0 0,55.68901 10.6299,0 0,55.1575 -10.6299,0 0,55.6889 z"
     inkscape:connector-curvature="0" />
  <path
     id="bat2_back"
     style="fill:none;stroke:#0000ff"
     d="m 1203.2533,269.79136 0,-269.29136 -55.6889,0 0,10.63001 -55.1575,0 0,-10.63001 -55.689,0 0,38.29311 -10.6299,0 0,38.82448 10.6299,0 0,38.11584 -10.6299,0 0,38.82452 10.6299,0 0,38.11586 -10.6299,0 0,38.82452 10.6299,0 0,38.29303 55.689,0 0,-10.62993 55.1575,0 0,10.62993 55.6889,0 z"
     inkscape:connector-curvature="0" />
  <path
     id="bat2_left_side"
     style="fill:none;stroke:#0000ff"
     d="m 1402.1512,315.07072 0,156.79147 55.3347,0 0,10.6299 55.8657,0 0,-10.6299 55.3347,0 0,-29.0552 10.6299,0 0,-40.21667 -10.6299,0 0,-39.5079 10.6299,0 0,-40.2164 -10.6299,0 0,-29.05507 -55.3347,0 0,-10.6299 -55.8657,0 0,10.6299 -55.3347,0 z"
     inkscape:connector-curvature="0" />
  <path
     id="bat2_right_side"
     style="fill:none;stroke:#0000ff"
     d="m 997.23889,315.07082 0,156.79127 55.33471,0 0,10.63 55.8661,0 0,-10.63 55.3347,0 0,-29.0551 10.6299,0 0,-40.21647 -10.6299,0 0,-39.5079 10.6299,0 0,-40.2165 -10.6299,0 0,-29.0552 -55.3347,0 0,-10.6299 -55.8661,0 0,10.6299 -55.33471,0 z"
     inkscape:connector-curvature="0" />
  <path
     id="bat2_bottom-1"
     style="fill:none;stroke:#0000ff"
     d="m 14.930023,0.5 0,38.6474 10.6299,0 0,38.11582 -10.6299,0 0,38.82452 10.6299,0 0,38.11586 -10.6299,0 0,38.82453 10.6299,0 0,38.11586 -10.6299,0 0,38.64735 40.0393,0 0,-10.62992 39.5079,0 0,10.62992 40.216497,0 0,-10.62992 39.5079,0 0,10.62992 40.0394,0 0,-38.64735 -10.6299,0 0,-38.11586 10.6299,0 0,-38.82453 -10.6299,0 0,-38.11586 10.6299,0 0,-38.82452 -10.6299,0 0,-38.11582 10.6299,0 0,-38.6474 -40.0394,0 0,10.6299 -39.5079,0 0,-10.6299 -40.216497,0 0,10.6299 -39.5079,0 0,-10.6299 -40.0393,0 z"
     inkscape:connector-curvature="0" />
  <path
     id="bat2_back-0"
     style="fill:none;stroke:#0000ff"
     d="m 841.72695,0.5 0,269.29136 55.689,0 0,-10.62992 55.1574,0 0,10.62992 55.68895,0 0,-38.29302 10.6299,0 0,-38.82453 -10.6299,0 0,-38.11586 10.6299,0 0,-38.82452 -10.6299,0 0,-38.11583 10.6299,0 0,-38.8245 -10.6299,0 0,-38.2931 -55.68895,0 0,10.63 -55.1574,0 0,-10.63 -55.689,0 z"
     inkscape:connector-curvature="0" />
  <path
     id="bat2_right_side-3"
     style="fill:none;stroke:#0000ff"
     d="m 799.22212,315.07102 0,156.79117 55.3347,0 0,10.6299 55.8661,0 0,-10.6299 55.3347,0 0,-29.0551 10.6299,0 0,-40.21637 -10.6299,0 0,-39.508 10.6299,0 0,-40.2165 -10.6299,0 0,-29.0552 -55.3347,0 0,-10.6298 -55.8661,0 0,10.6298 -55.3347,0 z"
     inkscape:connector-curvature="0" />
  <path
     id="bat2_bottom-7"
     style="fill:none;stroke:#0000ff"
     d="m 219.98342,0.5 0,38.6474 10.6299,0 0,38.11585 -10.6299,0 0,38.82452 10.6299,0 0,38.11586 -10.6299,0 0,38.82453 10.6299,0 0,38.11586 -10.6299,0 0,38.64735 40.0394,0 0,-10.62992 39.5079,0 0,10.62992 40.2165,0 0,-10.62992 39.5079,0 0,10.62992 40.0393,0 0,-38.64735 -10.6299,0 0,-38.11586 10.6299,0 0,-38.82453 -10.6299,0 0,-38.11586 10.6299,0 0,-38.82452 -10.6299,0 0,-38.11585 10.6299,0 0,-38.6474 -40.0393,0 0,10.6299 -39.5079,0 0,-10.6299 -40.2165,0 0,10.6299 -39.5079,0 0,-10.6299 -40.0394,0 z"
     inkscape:connector-curvature="0" />
  <path
     id="bat2_font-2"
     style="fill:none;stroke:#0000ff"
     d="m 1393.9312,0.5 0,269.29134 55.689,0 0,-10.62992 55.1575,0 0,10.62992 55.6889,0 0,-38.29302 10.6299,0 0,-38.82453 -10.6299,0 0,-38.11586 10.6299,0 0,-38.82452 -10.6299,0 0,-38.11586 10.6299,0 0,-38.82452 -10.6299,0 0,-38.29303 -55.6889,0 0,10.62993 -55.1575,0 0,-10.62993 -55.689,0 z"
     inkscape:connector-curvature="0" />
  <path
     id="bat2_back-5"
     style="fill:none;stroke:#0000ff"
     d="m 22.501314,671.06352 269.291396,0 0,-55.689 -10.6299,0 0,-55.15867 10.6299,0 0,-55.6898 -38.293,0 0,-10.6299 -38.8245,0 0,10.6299 -38.1159,0 0,-10.6299 -38.8246,0 0,10.6299 -38.115896,0 0,-10.6299 -38.8245,0 0,10.6299 -38.293,0 0,55.6898 10.6299,0 0,55.15867 -10.6299,0 0,55.689 z"
     inkscape:connector-curvature="0" />
  <path
     id="bat2_left_side-2"
     style="fill:none;stroke:#0000ff"
     d="m 28.843532,315.07086 0,156.79133 55.3347,0 0,10.6299 55.866088,0 0,-10.6299 55.3347,0 0,-29.0551 10.6299,0 0,-40.21654 -10.6299,0 0,-39.50788 10.6299,0 0,-40.21653 -10.6299,0 0,-29.05512 -55.3347,0 0,-10.62992 -55.866088,0 0,10.62992 -55.3347,0 z"
     inkscape:connector-curvature="0" />
  <path
     id="bat2_right_side-30"
     style="fill:none;stroke:#0000ff"
     d="m 213.72103,315.07086 0,156.79133 55.3347,0 0,10.6299 55.8661,0 0,-10.6299 55.3347,0 0,-29.0551 10.6299,0 0,-40.21655 -10.6299,0 0,-39.50787 10.6299,0 0,-40.21654 -10.6299,0 0,-29.05512 -55.3347,0 0,-10.62992 -55.8661,0 0,10.62992 -55.3347,0 z"
     inkscape:connector-curvature="0" />
  <path
     id="bat2_bottom-6"
     style="fill:none;stroke:#0000ff"
     d="m 627.13282,269.79139 0,-38.64736 -10.6299,0 0,-38.11586 10.6299,0 0,-38.82452 -10.6299,0 0,-38.11586 10.6299,0 0,-38.82453 -10.6299,0 0,-38.11586 10.6299,0 0,-38.6474 -40.0394,0 0,10.6299 -39.50793,0 0,-10.6299 -40.21647,0 0,10.6299 -39.5079,0 0,-10.6299 -40.0393,0 0,38.6474 10.6299,0 0,38.11586 -10.6299,0 0,38.82453 10.6299,0 0,38.11586 -10.6299,0 0,38.82452 10.6299,0 0,38.11586 -10.6299,0 0,38.64736 40.0393,0 0,-10.62993 39.5079,0 0,10.62993 40.21647,0 0,-10.62993 39.50793,0 0,10.62993 40.0394,0 z"
     inkscape:connector-curvature="0" />
  <path
     id="bat2_font-5"
     style="fill:none;stroke:#0000ff"
     d="m 1386.7995,269.79134 0,-269.29134 -55.6896,0 0,10.62992 -55.159,0 0,-10.62992 -55.689,0 0,38.29302 -10.6299,0 0,38.82453 10.6299,0 0,38.11586 -10.6299,0 0,38.82452 10.6299,0 0,38.11586 -10.6299,0 0,38.82452 10.6299,0 0,38.29303 55.689,0 0,-10.62993 55.159,0 0,10.62993 55.6896,0 z"
     inkscape:connector-curvature="0" />
  <path
     id="bat2_font-7"
     style="fill:none;stroke:#0000ff"
     d="m 1576.8746,0.5 0,269.29131 55.689,0 0,-10.6299 55.1574,0 0,10.6299 55.689,0 0,-38.293 10.6299,0 0,-38.82452 -10.6299,0 0,-38.11586 10.6299,0 0,-38.82452 -10.6299,0 0,-38.11586 10.6299,0 0,-38.82452 -10.6299,0 0,-38.29303 -55.689,0 0,10.62993 -55.1574,0 0,-10.62993 -55.689,0 z"
     inkscape:connector-curvature="0" />
  <path
     id="bat2_left_side-0"
     style="fill:none;stroke:#0000ff"
     d="m 594.83163,315.07102 0,156.79117 55.3347,0 0,10.6299 55.8661,0 0,-10.6299 55.3347,0 0,-29.0552 10.6299,0 0,-40.21627 -10.6299,0 0,-39.5079 10.6299,0 0,-40.2165 -10.6299,0 0,-29.0551 -55.3347,0 0,-10.6299 -55.8661,0 0,10.6299 -55.3347,0 z"
     inkscape:connector-curvature="0" />
  <path
     id="bat2_left_side-3"
     style="fill:none;stroke:#0000ff"
     d="m 573.5719,450.60239 0,-156.79137 -55.33467,0 0,-10.62992 -55.8661,0 0,10.62992 -55.3347,0 0,29.05512 -10.6299,0 0,40.21653 10.6299,0 0,39.50788 -10.6299,0 0,40.21654 10.6299,0 0,29.0551 55.3347,0 0,10.6299 55.8661,0 0,-10.6299 55.33467,0 z"
     inkscape:connector-curvature="0" />
  <path
     id="bat2_right_side-6"
     style="fill:none;stroke:#0000ff"
     d="m 1382.9501,450.60229 0,-156.79127 -55.3347,0 0,-10.63 -55.8661,0 0,10.63 -55.3347,0 0,29.0551 -10.6299,0 0,40.2165 10.6299,0 0,39.5079 -10.6299,0 0,40.21647 10.6299,0 0,29.0551 55.3347,0 0,10.63 55.8661,0 0,-10.63 55.3347,0 z"
     inkscape:connector-curvature="0" />
  <path
     id="bat2_back-3"
     style="fill:none;stroke:#0000ff"
     d="m 302.67344,669.44265 269.29133,0 0,-55.689 -10.62992,0 0,-55.1575 10.62992,0 0,-55.689 -38.29302,0 0,-10.6299 -38.82453,0 0,10.6299 -38.11588,0 0,-10.6299 -38.8245,0 0,10.6299 -38.1159,0 0,-10.6299 -38.8245,0 0,10.6299 -38.293,0 0,55.689 10.6299,0 0,55.1575 -10.6299,0 0,55.689 z"
     inkscape:connector-curvature="0" />
</svg>
